<mxfile host="app.diagrams.net" modified="2020-12-04T10:31:00.339Z" agent="5.0 (Windows NT 10.0; Win64; x64) AppleWebKit/537.36 (KHTML, like Gecko) Chrome/87.0.4280.88 Safari/537.36" etag="8I61Ow3iXwDG0GhWn6is" version="13.10.7" type="github">
  <diagram id="C5RBs43oDa-KdzZeNtuy" name="Page-1">
    <mxGraphModel dx="782" dy="514" grid="1" gridSize="10" guides="1" tooltips="1" connect="1" arrows="1" fold="1" page="1" pageScale="1" pageWidth="827" pageHeight="1169" math="0" shadow="0">
      <root>
        <mxCell id="WIyWlLk6GJQsqaUBKTNV-0" />
        <mxCell id="WIyWlLk6GJQsqaUBKTNV-1" parent="WIyWlLk6GJQsqaUBKTNV-0" />
        <mxCell id="m17fT7A31BCtRHgmfNSN-10" style="rounded=0;orthogonalLoop=1;jettySize=auto;html=1;entryX=0;entryY=0.5;entryDx=0;entryDy=0;endArrow=ERmany;endFill=0;" edge="1" parent="WIyWlLk6GJQsqaUBKTNV-1" source="vgXwqv752yafJhqU4HUZ-1" target="m17fT7A31BCtRHgmfNSN-4">
          <mxGeometry relative="1" as="geometry" />
        </mxCell>
        <mxCell id="vgXwqv752yafJhqU4HUZ-1" value="&lt;font style=&quot;vertical-align: inherit&quot;&gt;&lt;font style=&quot;vertical-align: inherit&quot;&gt;Modelli&lt;/font&gt;&lt;/font&gt;" style="shape=table;html=1;whiteSpace=wrap;startSize=30;container=1;collapsible=0;childLayout=tableLayout;fixedRows=1;rowLines=0;fontStyle=1;align=center;fillColor=#e1d5e7;strokeColor=#9673a6;" parent="WIyWlLk6GJQsqaUBKTNV-1" vertex="1">
          <mxGeometry x="280" y="42.5" width="180" height="140" as="geometry" />
        </mxCell>
        <mxCell id="vgXwqv752yafJhqU4HUZ-2" value="" style="shape=partialRectangle;html=1;whiteSpace=wrap;collapsible=0;dropTarget=0;pointerEvents=0;fillColor=none;top=0;left=0;bottom=1;right=0;points=[[0,0.5],[1,0.5]];portConstraint=eastwest;" parent="vgXwqv752yafJhqU4HUZ-1" vertex="1">
          <mxGeometry y="30" width="180" height="30" as="geometry" />
        </mxCell>
        <mxCell id="vgXwqv752yafJhqU4HUZ-3" value="&lt;font style=&quot;vertical-align: inherit&quot;&gt;&lt;font style=&quot;vertical-align: inherit&quot;&gt;PK&lt;/font&gt;&lt;/font&gt;" style="shape=partialRectangle;html=1;whiteSpace=wrap;connectable=0;fillColor=none;top=0;left=0;bottom=0;right=0;overflow=hidden;" parent="vgXwqv752yafJhqU4HUZ-2" vertex="1">
          <mxGeometry width="40" height="30" as="geometry" />
        </mxCell>
        <mxCell id="vgXwqv752yafJhqU4HUZ-4" value="&lt;font style=&quot;vertical-align: inherit&quot;&gt;&lt;font style=&quot;vertical-align: inherit&quot;&gt;Id_modello&lt;/font&gt;&lt;/font&gt;" style="shape=partialRectangle;html=1;whiteSpace=wrap;connectable=0;fillColor=none;top=0;left=0;bottom=0;right=0;align=left;spacingLeft=6;overflow=hidden;" parent="vgXwqv752yafJhqU4HUZ-2" vertex="1">
          <mxGeometry x="40" width="140" height="30" as="geometry" />
        </mxCell>
        <mxCell id="vgXwqv752yafJhqU4HUZ-5" value="" style="shape=partialRectangle;html=1;whiteSpace=wrap;collapsible=0;dropTarget=0;pointerEvents=0;fillColor=none;top=0;left=0;bottom=0;right=0;points=[[0,0.5],[1,0.5]];portConstraint=eastwest;" parent="vgXwqv752yafJhqU4HUZ-1" vertex="1">
          <mxGeometry y="60" width="180" height="50" as="geometry" />
        </mxCell>
        <mxCell id="vgXwqv752yafJhqU4HUZ-6" value="" style="shape=partialRectangle;html=1;whiteSpace=wrap;connectable=0;fillColor=none;top=0;left=0;bottom=0;right=0;overflow=hidden;" parent="vgXwqv752yafJhqU4HUZ-5" vertex="1">
          <mxGeometry width="40" height="50" as="geometry" />
        </mxCell>
        <mxCell id="vgXwqv752yafJhqU4HUZ-7" value="&lt;font style=&quot;vertical-align: inherit&quot;&gt;&lt;font style=&quot;vertical-align: inherit&quot;&gt;&lt;font style=&quot;vertical-align: inherit&quot;&gt;&lt;font style=&quot;vertical-align: inherit&quot;&gt;&amp;nbsp;&lt;/font&gt;&lt;/font&gt;&lt;br&gt;&lt;font style=&quot;vertical-align: inherit&quot;&gt;&lt;font style=&quot;vertical-align: inherit&quot;&gt;nome&amp;nbsp; &lt;/font&gt;&lt;/font&gt;&lt;br&gt;&lt;font style=&quot;vertical-align: inherit&quot;&gt;&lt;font style=&quot;vertical-align: inherit&quot;&gt;descrizione&lt;/font&gt;&lt;/font&gt;&lt;br&gt;&lt;/font&gt;&lt;/font&gt;" style="shape=partialRectangle;html=1;whiteSpace=wrap;connectable=0;fillColor=none;top=0;left=0;bottom=0;right=0;align=left;spacingLeft=6;overflow=hidden;" parent="vgXwqv752yafJhqU4HUZ-5" vertex="1">
          <mxGeometry x="40" width="140" height="50" as="geometry" />
        </mxCell>
        <mxCell id="vgXwqv752yafJhqU4HUZ-8" value="" style="shape=partialRectangle;html=1;whiteSpace=wrap;collapsible=0;dropTarget=0;pointerEvents=0;fillColor=none;top=0;left=0;bottom=0;right=0;points=[[0,0.5],[1,0.5]];portConstraint=eastwest;" parent="vgXwqv752yafJhqU4HUZ-1" vertex="1">
          <mxGeometry y="110" width="180" height="30" as="geometry" />
        </mxCell>
        <mxCell id="vgXwqv752yafJhqU4HUZ-9" value="" style="shape=partialRectangle;html=1;whiteSpace=wrap;connectable=0;fillColor=none;top=0;left=0;bottom=0;right=0;overflow=hidden;" parent="vgXwqv752yafJhqU4HUZ-8" vertex="1">
          <mxGeometry width="40" height="30" as="geometry" />
        </mxCell>
        <mxCell id="vgXwqv752yafJhqU4HUZ-10" value="" style="shape=partialRectangle;html=1;whiteSpace=wrap;connectable=0;fillColor=none;top=0;left=0;bottom=0;right=0;align=left;spacingLeft=6;overflow=hidden;" parent="vgXwqv752yafJhqU4HUZ-8" vertex="1">
          <mxGeometry x="40" width="140" height="30" as="geometry" />
        </mxCell>
        <mxCell id="m17fT7A31BCtRHgmfNSN-32" style="edgeStyle=none;rounded=0;orthogonalLoop=1;jettySize=auto;html=1;entryX=0;entryY=0.5;entryDx=0;entryDy=0;endArrow=ERmany;endFill=0;" edge="1" parent="WIyWlLk6GJQsqaUBKTNV-1" source="vgXwqv752yafJhqU4HUZ-11" target="m17fT7A31BCtRHgmfNSN-26">
          <mxGeometry relative="1" as="geometry" />
        </mxCell>
        <mxCell id="vgXwqv752yafJhqU4HUZ-11" value="&lt;font style=&quot;vertical-align: inherit&quot;&gt;&lt;font style=&quot;vertical-align: inherit&quot;&gt;&lt;font style=&quot;vertical-align: inherit&quot;&gt;&lt;font style=&quot;vertical-align: inherit&quot;&gt;Tessuti&lt;/font&gt;&lt;/font&gt;&lt;/font&gt;&lt;/font&gt;" style="shape=table;html=1;whiteSpace=wrap;startSize=30;container=1;collapsible=0;childLayout=tableLayout;fixedRows=1;rowLines=0;fontStyle=1;align=center;fillColor=#ffe6cc;strokeColor=#d79b00;" parent="WIyWlLk6GJQsqaUBKTNV-1" vertex="1">
          <mxGeometry x="720" y="32.5" width="180" height="150" as="geometry" />
        </mxCell>
        <mxCell id="vgXwqv752yafJhqU4HUZ-12" value="" style="shape=partialRectangle;html=1;whiteSpace=wrap;collapsible=0;dropTarget=0;pointerEvents=0;fillColor=none;top=0;left=0;bottom=1;right=0;points=[[0,0.5],[1,0.5]];portConstraint=eastwest;" parent="vgXwqv752yafJhqU4HUZ-11" vertex="1">
          <mxGeometry y="30" width="180" height="30" as="geometry" />
        </mxCell>
        <mxCell id="vgXwqv752yafJhqU4HUZ-13" value="&lt;font style=&quot;vertical-align: inherit&quot;&gt;&lt;font style=&quot;vertical-align: inherit&quot;&gt;PK&lt;/font&gt;&lt;/font&gt;" style="shape=partialRectangle;html=1;whiteSpace=wrap;connectable=0;fillColor=none;top=0;left=0;bottom=0;right=0;overflow=hidden;" parent="vgXwqv752yafJhqU4HUZ-12" vertex="1">
          <mxGeometry width="40" height="30" as="geometry" />
        </mxCell>
        <mxCell id="vgXwqv752yafJhqU4HUZ-14" value="&lt;font style=&quot;vertical-align: inherit&quot;&gt;&lt;font style=&quot;vertical-align: inherit&quot;&gt;codice_tessuto&lt;/font&gt;&lt;/font&gt;" style="shape=partialRectangle;html=1;whiteSpace=wrap;connectable=0;fillColor=none;top=0;left=0;bottom=0;right=0;align=left;spacingLeft=6;overflow=hidden;" parent="vgXwqv752yafJhqU4HUZ-12" vertex="1">
          <mxGeometry x="40" width="140" height="30" as="geometry" />
        </mxCell>
        <mxCell id="vgXwqv752yafJhqU4HUZ-15" value="" style="shape=partialRectangle;html=1;whiteSpace=wrap;collapsible=0;dropTarget=0;pointerEvents=0;fillColor=none;top=0;left=0;bottom=0;right=0;points=[[0,0.5],[1,0.5]];portConstraint=eastwest;" parent="vgXwqv752yafJhqU4HUZ-11" vertex="1">
          <mxGeometry y="60" width="180" height="30" as="geometry" />
        </mxCell>
        <mxCell id="vgXwqv752yafJhqU4HUZ-16" value="" style="shape=partialRectangle;html=1;whiteSpace=wrap;connectable=0;fillColor=none;top=0;left=0;bottom=0;right=0;overflow=hidden;" parent="vgXwqv752yafJhqU4HUZ-15" vertex="1">
          <mxGeometry width="40" height="30" as="geometry" />
        </mxCell>
        <mxCell id="vgXwqv752yafJhqU4HUZ-17" value="&lt;font style=&quot;vertical-align: inherit&quot;&gt;&lt;font style=&quot;vertical-align: inherit&quot;&gt;&lt;font style=&quot;vertical-align: inherit&quot;&gt;&lt;font style=&quot;vertical-align: inherit&quot;&gt;nome &lt;/font&gt;&lt;/font&gt;&lt;br&gt;&lt;br&gt;&lt;/font&gt;&lt;/font&gt;" style="shape=partialRectangle;html=1;whiteSpace=wrap;connectable=0;fillColor=none;top=0;left=0;bottom=0;right=0;align=left;spacingLeft=6;overflow=hidden;" parent="vgXwqv752yafJhqU4HUZ-15" vertex="1">
          <mxGeometry x="40" width="140" height="30" as="geometry" />
        </mxCell>
        <mxCell id="vgXwqv752yafJhqU4HUZ-18" value="" style="shape=partialRectangle;html=1;whiteSpace=wrap;collapsible=0;dropTarget=0;pointerEvents=0;fillColor=none;top=0;left=0;bottom=0;right=0;points=[[0,0.5],[1,0.5]];portConstraint=eastwest;" parent="vgXwqv752yafJhqU4HUZ-11" vertex="1">
          <mxGeometry y="90" width="180" height="30" as="geometry" />
        </mxCell>
        <mxCell id="vgXwqv752yafJhqU4HUZ-19" value="" style="shape=partialRectangle;html=1;whiteSpace=wrap;connectable=0;fillColor=none;top=0;left=0;bottom=0;right=0;overflow=hidden;" parent="vgXwqv752yafJhqU4HUZ-18" vertex="1">
          <mxGeometry width="40" height="30" as="geometry" />
        </mxCell>
        <mxCell id="vgXwqv752yafJhqU4HUZ-20" value="" style="shape=partialRectangle;html=1;whiteSpace=wrap;connectable=0;fillColor=none;top=0;left=0;bottom=0;right=0;align=left;spacingLeft=6;overflow=hidden;" parent="vgXwqv752yafJhqU4HUZ-18" vertex="1">
          <mxGeometry x="40" width="140" height="30" as="geometry" />
        </mxCell>
        <mxCell id="vgXwqv752yafJhqU4HUZ-87" value="dettagli&amp;nbsp;" style="edgeStyle=none;rounded=0;orthogonalLoop=1;jettySize=auto;html=1;endArrow=ERmany;endFill=0;" parent="WIyWlLk6GJQsqaUBKTNV-1" source="vgXwqv752yafJhqU4HUZ-21" edge="1">
          <mxGeometry relative="1" as="geometry">
            <mxPoint x="100" y="310" as="targetPoint" />
          </mxGeometry>
        </mxCell>
        <mxCell id="vgXwqv752yafJhqU4HUZ-88" style="edgeStyle=none;rounded=0;orthogonalLoop=1;jettySize=auto;html=1;endArrow=ERmany;endFill=0;entryX=1;entryY=0.5;entryDx=0;entryDy=0;exitX=-0.011;exitY=0.87;exitDx=0;exitDy=0;exitPerimeter=0;" parent="WIyWlLk6GJQsqaUBKTNV-1" source="vgXwqv752yafJhqU4HUZ-5" target="vgXwqv752yafJhqU4HUZ-25" edge="1">
          <mxGeometry relative="1" as="geometry">
            <mxPoint x="250" y="180" as="sourcePoint" />
            <mxPoint x="280" y="119" as="targetPoint" />
          </mxGeometry>
        </mxCell>
        <mxCell id="vgXwqv752yafJhqU4HUZ-90" value="hanno" style="edgeLabel;html=1;align=center;verticalAlign=middle;resizable=0;points=[];" parent="vgXwqv752yafJhqU4HUZ-88" vertex="1" connectable="0">
          <mxGeometry x="-0.1868" y="1" relative="1" as="geometry">
            <mxPoint as="offset" />
          </mxGeometry>
        </mxCell>
        <mxCell id="m17fT7A31BCtRHgmfNSN-48" style="edgeStyle=elbowEdgeStyle;rounded=0;orthogonalLoop=1;jettySize=auto;html=1;entryX=0.75;entryY=0;entryDx=0;entryDy=0;endArrow=oval;endFill=0;elbow=vertical;" edge="1" parent="WIyWlLk6GJQsqaUBKTNV-1" source="vgXwqv752yafJhqU4HUZ-21" target="m17fT7A31BCtRHgmfNSN-12">
          <mxGeometry relative="1" as="geometry" />
        </mxCell>
        <mxCell id="vgXwqv752yafJhqU4HUZ-21" value="&lt;font style=&quot;vertical-align: inherit&quot;&gt;&lt;font style=&quot;vertical-align: inherit&quot;&gt;&lt;font style=&quot;vertical-align: inherit&quot;&gt;&lt;font style=&quot;vertical-align: inherit&quot;&gt;Divani&lt;/font&gt;&lt;/font&gt;&lt;/font&gt;&lt;/font&gt;" style="shape=table;html=1;whiteSpace=wrap;startSize=30;container=1;collapsible=0;childLayout=tableLayout;fixedRows=1;rowLines=0;fontStyle=1;align=center;fillColor=#f8cecc;strokeColor=#b85450;" parent="WIyWlLk6GJQsqaUBKTNV-1" vertex="1">
          <mxGeometry x="10" y="22.5" width="180" height="218" as="geometry" />
        </mxCell>
        <mxCell id="vgXwqv752yafJhqU4HUZ-22" value="" style="shape=partialRectangle;html=1;whiteSpace=wrap;collapsible=0;dropTarget=0;pointerEvents=0;fillColor=none;top=0;left=0;bottom=1;right=0;points=[[0,0.5],[1,0.5]];portConstraint=eastwest;" parent="vgXwqv752yafJhqU4HUZ-21" vertex="1">
          <mxGeometry y="30" width="180" height="30" as="geometry" />
        </mxCell>
        <mxCell id="vgXwqv752yafJhqU4HUZ-23" value="&lt;font style=&quot;vertical-align: inherit&quot;&gt;&lt;font style=&quot;vertical-align: inherit&quot;&gt;PK&lt;/font&gt;&lt;/font&gt;" style="shape=partialRectangle;html=1;whiteSpace=wrap;connectable=0;fillColor=none;top=0;left=0;bottom=0;right=0;overflow=hidden;" parent="vgXwqv752yafJhqU4HUZ-22" vertex="1">
          <mxGeometry width="40" height="30" as="geometry" />
        </mxCell>
        <mxCell id="vgXwqv752yafJhqU4HUZ-24" value="num_progressivo" style="shape=partialRectangle;html=1;whiteSpace=wrap;connectable=0;fillColor=none;top=0;left=0;bottom=0;right=0;align=left;spacingLeft=6;overflow=hidden;" parent="vgXwqv752yafJhqU4HUZ-22" vertex="1">
          <mxGeometry x="40" width="140" height="30" as="geometry" />
        </mxCell>
        <mxCell id="vgXwqv752yafJhqU4HUZ-25" value="" style="shape=partialRectangle;html=1;whiteSpace=wrap;collapsible=0;dropTarget=0;pointerEvents=0;fillColor=none;top=0;left=0;bottom=0;right=0;points=[[0,0.5],[1,0.5]];portConstraint=eastwest;" parent="vgXwqv752yafJhqU4HUZ-21" vertex="1">
          <mxGeometry y="60" width="180" height="128" as="geometry" />
        </mxCell>
        <mxCell id="vgXwqv752yafJhqU4HUZ-26" value="FK" style="shape=partialRectangle;html=1;whiteSpace=wrap;connectable=0;fillColor=none;top=0;left=0;bottom=0;right=0;overflow=hidden;" parent="vgXwqv752yafJhqU4HUZ-25" vertex="1">
          <mxGeometry width="40" height="128" as="geometry" />
        </mxCell>
        <mxCell id="vgXwqv752yafJhqU4HUZ-27" value="&lt;font style=&quot;vertical-align: inherit&quot;&gt;&lt;font style=&quot;vertical-align: inherit&quot;&gt;id_modello&lt;br&gt;id_colore&lt;br&gt;&lt;font style=&quot;vertical-align: inherit&quot;&gt;&lt;font style=&quot;vertical-align: inherit&quot;&gt;&lt;font style=&quot;vertical-align: inherit&quot;&gt;&lt;font style=&quot;vertical-align: inherit&quot;&gt;&lt;br&gt;&lt;br&gt;&lt;br&gt;n_posti &lt;/font&gt;&lt;/font&gt;&lt;br&gt;&lt;/font&gt;&lt;/font&gt;&lt;font style=&quot;vertical-align: inherit&quot;&gt;&lt;font style=&quot;vertical-align: inherit&quot;&gt;&lt;font style=&quot;vertical-align: inherit&quot;&gt;&lt;font style=&quot;vertical-align: inherit&quot;&gt;n_realizzazzione &lt;/font&gt;&lt;/font&gt;&lt;br&gt;&lt;/font&gt;&lt;/font&gt;&lt;font style=&quot;vertical-align: inherit&quot;&gt;&lt;font style=&quot;vertical-align: inherit&quot;&gt;&lt;font style=&quot;vertical-align: inherit&quot;&gt;&lt;font style=&quot;vertical-align: inherit&quot;&gt;prezzo&lt;/font&gt;&lt;/font&gt;&lt;br&gt;&lt;/font&gt;&lt;/font&gt;&lt;br&gt;&lt;/font&gt;&lt;/font&gt;" style="shape=partialRectangle;html=1;whiteSpace=wrap;connectable=0;fillColor=none;top=0;left=0;bottom=0;right=0;align=left;spacingLeft=6;overflow=hidden;" parent="vgXwqv752yafJhqU4HUZ-25" vertex="1">
          <mxGeometry x="40" width="140" height="128" as="geometry" />
        </mxCell>
        <mxCell id="vgXwqv752yafJhqU4HUZ-28" value="" style="shape=partialRectangle;html=1;whiteSpace=wrap;collapsible=0;dropTarget=0;pointerEvents=0;fillColor=none;top=0;left=0;bottom=0;right=0;points=[[0,0.5],[1,0.5]];portConstraint=eastwest;" parent="vgXwqv752yafJhqU4HUZ-21" vertex="1">
          <mxGeometry y="188" width="180" height="30" as="geometry" />
        </mxCell>
        <mxCell id="vgXwqv752yafJhqU4HUZ-29" value="" style="shape=partialRectangle;html=1;whiteSpace=wrap;connectable=0;fillColor=none;top=0;left=0;bottom=0;right=0;overflow=hidden;" parent="vgXwqv752yafJhqU4HUZ-28" vertex="1">
          <mxGeometry width="40" height="30" as="geometry" />
        </mxCell>
        <mxCell id="vgXwqv752yafJhqU4HUZ-30" value="" style="shape=partialRectangle;html=1;whiteSpace=wrap;connectable=0;fillColor=none;top=0;left=0;bottom=0;right=0;align=left;spacingLeft=6;overflow=hidden;" parent="vgXwqv752yafJhqU4HUZ-28" vertex="1">
          <mxGeometry x="40" width="140" height="30" as="geometry" />
        </mxCell>
        <mxCell id="m17fT7A31BCtRHgmfNSN-50" style="rounded=0;orthogonalLoop=1;jettySize=auto;elbow=vertical;html=1;entryX=0.567;entryY=1.044;entryDx=0;entryDy=0;entryPerimeter=0;startArrow=none;startFill=0;endArrow=ERmany;endFill=0;" edge="1" parent="WIyWlLk6GJQsqaUBKTNV-1" source="vgXwqv752yafJhqU4HUZ-31" target="vgXwqv752yafJhqU4HUZ-58">
          <mxGeometry relative="1" as="geometry" />
        </mxCell>
        <mxCell id="vgXwqv752yafJhqU4HUZ-31" value="&lt;font style=&quot;vertical-align: inherit&quot;&gt;&lt;font style=&quot;vertical-align: inherit&quot;&gt;Cliente&lt;/font&gt;&lt;/font&gt;" style="shape=table;html=1;whiteSpace=wrap;startSize=30;container=1;collapsible=0;childLayout=tableLayout;fixedRows=1;rowLines=0;fontStyle=1;align=center;fillColor=#60a917;strokeColor=#2D7600;fontColor=#ffffff;" parent="WIyWlLk6GJQsqaUBKTNV-1" vertex="1">
          <mxGeometry x="270" y="520" width="180" height="160" as="geometry" />
        </mxCell>
        <mxCell id="vgXwqv752yafJhqU4HUZ-32" value="" style="shape=partialRectangle;html=1;whiteSpace=wrap;collapsible=0;dropTarget=0;pointerEvents=0;fillColor=none;top=0;left=0;bottom=1;right=0;points=[[0,0.5],[1,0.5]];portConstraint=eastwest;" parent="vgXwqv752yafJhqU4HUZ-31" vertex="1">
          <mxGeometry y="30" width="180" height="30" as="geometry" />
        </mxCell>
        <mxCell id="vgXwqv752yafJhqU4HUZ-33" value="&lt;font style=&quot;vertical-align: inherit&quot;&gt;&lt;font style=&quot;vertical-align: inherit&quot;&gt;PK&lt;/font&gt;&lt;/font&gt;" style="shape=partialRectangle;html=1;whiteSpace=wrap;connectable=0;fillColor=none;top=0;left=0;bottom=0;right=0;overflow=hidden;" parent="vgXwqv752yafJhqU4HUZ-32" vertex="1">
          <mxGeometry width="40" height="30" as="geometry" />
        </mxCell>
        <mxCell id="vgXwqv752yafJhqU4HUZ-34" value="&lt;font style=&quot;vertical-align: inherit&quot;&gt;&lt;font style=&quot;vertical-align: inherit&quot;&gt;codice_fiscale&lt;/font&gt;&lt;/font&gt;" style="shape=partialRectangle;html=1;whiteSpace=wrap;connectable=0;fillColor=none;top=0;left=0;bottom=0;right=0;align=left;spacingLeft=6;overflow=hidden;" parent="vgXwqv752yafJhqU4HUZ-32" vertex="1">
          <mxGeometry x="40" width="140" height="30" as="geometry" />
        </mxCell>
        <mxCell id="vgXwqv752yafJhqU4HUZ-35" value="" style="shape=partialRectangle;html=1;whiteSpace=wrap;collapsible=0;dropTarget=0;pointerEvents=0;fillColor=none;top=0;left=0;bottom=0;right=0;points=[[0,0.5],[1,0.5]];portConstraint=eastwest;" parent="vgXwqv752yafJhqU4HUZ-31" vertex="1">
          <mxGeometry y="60" width="180" height="70" as="geometry" />
        </mxCell>
        <mxCell id="vgXwqv752yafJhqU4HUZ-36" value="" style="shape=partialRectangle;html=1;whiteSpace=wrap;connectable=0;fillColor=none;top=0;left=0;bottom=0;right=0;overflow=hidden;" parent="vgXwqv752yafJhqU4HUZ-35" vertex="1">
          <mxGeometry width="40" height="70" as="geometry" />
        </mxCell>
        <mxCell id="vgXwqv752yafJhqU4HUZ-37" value="&lt;font style=&quot;vertical-align: inherit&quot;&gt;&lt;font style=&quot;vertical-align: inherit&quot;&gt;&lt;font style=&quot;vertical-align: inherit&quot;&gt;&lt;font style=&quot;vertical-align: inherit&quot;&gt;&lt;font style=&quot;vertical-align: inherit&quot;&gt;&lt;font style=&quot;vertical-align: inherit&quot;&gt;data_nascita &lt;/font&gt;&lt;/font&gt;&lt;/font&gt;&lt;/font&gt;&lt;br&gt;&lt;font style=&quot;vertical-align: inherit&quot;&gt;&lt;font style=&quot;vertical-align: inherit&quot;&gt;&lt;font style=&quot;vertical-align: inherit&quot;&gt;&lt;font style=&quot;vertical-align: inherit&quot;&gt;numero_telefonico &lt;/font&gt;&lt;/font&gt;&lt;br&gt;&lt;/font&gt;&lt;/font&gt;&lt;font style=&quot;vertical-align: inherit&quot;&gt;&lt;font style=&quot;vertical-align: inherit&quot;&gt;&lt;font style=&quot;vertical-align: inherit&quot;&gt;&lt;font style=&quot;vertical-align: inherit&quot;&gt;indirizzo_citta &lt;/font&gt;&lt;/font&gt;&lt;br&gt;&lt;/font&gt;&lt;/font&gt;&lt;font style=&quot;vertical-align: inherit&quot;&gt;&lt;font style=&quot;vertical-align: inherit&quot;&gt;&lt;font style=&quot;vertical-align: inherit&quot;&gt;&lt;font style=&quot;vertical-align: inherit&quot;&gt;residenza&lt;/font&gt;&lt;/font&gt;&lt;/font&gt;&lt;/font&gt;&lt;br&gt;&lt;/font&gt;&lt;/font&gt;" style="shape=partialRectangle;html=1;whiteSpace=wrap;connectable=0;fillColor=none;top=0;left=0;bottom=0;right=0;align=left;spacingLeft=6;overflow=hidden;" parent="vgXwqv752yafJhqU4HUZ-35" vertex="1">
          <mxGeometry x="40" width="140" height="70" as="geometry" />
        </mxCell>
        <mxCell id="vgXwqv752yafJhqU4HUZ-38" value="" style="shape=partialRectangle;html=1;whiteSpace=wrap;collapsible=0;dropTarget=0;pointerEvents=0;fillColor=none;top=0;left=0;bottom=0;right=0;points=[[0,0.5],[1,0.5]];portConstraint=eastwest;" parent="vgXwqv752yafJhqU4HUZ-31" vertex="1">
          <mxGeometry y="130" width="180" height="30" as="geometry" />
        </mxCell>
        <mxCell id="vgXwqv752yafJhqU4HUZ-39" value="" style="shape=partialRectangle;html=1;whiteSpace=wrap;connectable=0;fillColor=none;top=0;left=0;bottom=0;right=0;overflow=hidden;" parent="vgXwqv752yafJhqU4HUZ-38" vertex="1">
          <mxGeometry width="40" height="30" as="geometry" />
        </mxCell>
        <mxCell id="vgXwqv752yafJhqU4HUZ-40" value="" style="shape=partialRectangle;html=1;whiteSpace=wrap;connectable=0;fillColor=none;top=0;left=0;bottom=0;right=0;align=left;spacingLeft=6;overflow=hidden;" parent="vgXwqv752yafJhqU4HUZ-38" vertex="1">
          <mxGeometry x="40" width="140" height="30" as="geometry" />
        </mxCell>
        <mxCell id="m17fT7A31BCtRHgmfNSN-52" style="edgeStyle=none;rounded=0;orthogonalLoop=1;jettySize=auto;html=1;entryX=0.5;entryY=0;entryDx=0;entryDy=0;startArrow=none;startFill=0;endArrow=ERmany;endFill=0;" edge="1" parent="WIyWlLk6GJQsqaUBKTNV-1" source="vgXwqv752yafJhqU4HUZ-41" target="vgXwqv752yafJhqU4HUZ-61">
          <mxGeometry relative="1" as="geometry" />
        </mxCell>
        <mxCell id="vgXwqv752yafJhqU4HUZ-41" value="&lt;font style=&quot;vertical-align: inherit&quot;&gt;&lt;font style=&quot;vertical-align: inherit&quot;&gt;Corriere&lt;/font&gt;&lt;/font&gt;" style="shape=table;html=1;whiteSpace=wrap;startSize=30;container=1;collapsible=0;childLayout=tableLayout;fixedRows=1;rowLines=0;fontStyle=1;align=center;fillColor=#1ba1e2;strokeColor=#006EAF;fontColor=#ffffff;" parent="WIyWlLk6GJQsqaUBKTNV-1" vertex="1">
          <mxGeometry x="540" y="300" width="180" height="135" as="geometry" />
        </mxCell>
        <mxCell id="vgXwqv752yafJhqU4HUZ-42" value="" style="shape=partialRectangle;html=1;whiteSpace=wrap;collapsible=0;dropTarget=0;pointerEvents=0;fillColor=none;top=0;left=0;bottom=1;right=0;points=[[0,0.5],[1,0.5]];portConstraint=eastwest;" parent="vgXwqv752yafJhqU4HUZ-41" vertex="1">
          <mxGeometry y="30" width="180" height="30" as="geometry" />
        </mxCell>
        <mxCell id="vgXwqv752yafJhqU4HUZ-43" value="&lt;font style=&quot;vertical-align: inherit&quot;&gt;&lt;font style=&quot;vertical-align: inherit&quot;&gt;PK&lt;/font&gt;&lt;/font&gt;" style="shape=partialRectangle;html=1;whiteSpace=wrap;connectable=0;fillColor=none;top=0;left=0;bottom=0;right=0;overflow=hidden;" parent="vgXwqv752yafJhqU4HUZ-42" vertex="1">
          <mxGeometry width="40" height="30" as="geometry" />
        </mxCell>
        <mxCell id="vgXwqv752yafJhqU4HUZ-44" value="&lt;font style=&quot;vertical-align: inherit&quot;&gt;&lt;font style=&quot;vertical-align: inherit&quot;&gt;Codice_fiscale&lt;/font&gt;&lt;/font&gt;" style="shape=partialRectangle;html=1;whiteSpace=wrap;connectable=0;fillColor=none;top=0;left=0;bottom=0;right=0;align=left;spacingLeft=6;overflow=hidden;" parent="vgXwqv752yafJhqU4HUZ-42" vertex="1">
          <mxGeometry x="40" width="140" height="30" as="geometry" />
        </mxCell>
        <mxCell id="vgXwqv752yafJhqU4HUZ-45" value="" style="shape=partialRectangle;html=1;whiteSpace=wrap;collapsible=0;dropTarget=0;pointerEvents=0;fillColor=none;top=0;left=0;bottom=0;right=0;points=[[0,0.5],[1,0.5]];portConstraint=eastwest;" parent="vgXwqv752yafJhqU4HUZ-41" vertex="1">
          <mxGeometry y="60" width="180" height="45" as="geometry" />
        </mxCell>
        <mxCell id="vgXwqv752yafJhqU4HUZ-46" value="" style="shape=partialRectangle;html=1;whiteSpace=wrap;connectable=0;fillColor=none;top=0;left=0;bottom=0;right=0;overflow=hidden;" parent="vgXwqv752yafJhqU4HUZ-45" vertex="1">
          <mxGeometry width="40" height="45" as="geometry" />
        </mxCell>
        <mxCell id="vgXwqv752yafJhqU4HUZ-47" value="&lt;font style=&quot;vertical-align: inherit&quot;&gt;&lt;font style=&quot;vertical-align: inherit&quot;&gt;&lt;font style=&quot;vertical-align: inherit&quot;&gt;&lt;font style=&quot;vertical-align: inherit&quot;&gt;&lt;font style=&quot;vertical-align: inherit&quot;&gt;&lt;font style=&quot;vertical-align: inherit&quot;&gt;&lt;font style=&quot;vertical-align: inherit&quot;&gt;&lt;font style=&quot;vertical-align: inherit&quot;&gt;nome &lt;/font&gt;&lt;/font&gt;&lt;/font&gt;&lt;/font&gt;&lt;/font&gt;&lt;/font&gt;&lt;br&gt;&lt;font style=&quot;vertical-align: inherit&quot;&gt;&lt;font style=&quot;vertical-align: inherit&quot;&gt;&lt;font style=&quot;vertical-align: inherit&quot;&gt;&lt;font style=&quot;vertical-align: inherit&quot;&gt;&lt;font style=&quot;vertical-align: inherit&quot;&gt;&lt;font style=&quot;vertical-align: inherit&quot;&gt;numero_telefonico &lt;/font&gt;&lt;/font&gt;&lt;/font&gt;&lt;/font&gt;&lt;/font&gt;&lt;/font&gt;&lt;br&gt;&lt;font style=&quot;vertical-align: inherit&quot;&gt;&lt;font style=&quot;vertical-align: inherit&quot;&gt;&lt;font style=&quot;vertical-align: inherit&quot;&gt;&lt;font style=&quot;vertical-align: inherit&quot;&gt;&lt;font style=&quot;vertical-align: inherit&quot;&gt;&lt;font style=&quot;vertical-align: inherit&quot;&gt;citta&lt;/font&gt;&lt;/font&gt;&lt;/font&gt;&lt;/font&gt;&lt;/font&gt;&lt;/font&gt;&lt;br&gt;&lt;/font&gt;&lt;/font&gt;" style="shape=partialRectangle;html=1;whiteSpace=wrap;connectable=0;fillColor=none;top=0;left=0;bottom=0;right=0;align=left;spacingLeft=6;overflow=hidden;" parent="vgXwqv752yafJhqU4HUZ-45" vertex="1">
          <mxGeometry x="40" width="140" height="45" as="geometry" />
        </mxCell>
        <mxCell id="vgXwqv752yafJhqU4HUZ-48" value="" style="shape=partialRectangle;html=1;whiteSpace=wrap;collapsible=0;dropTarget=0;pointerEvents=0;fillColor=none;top=0;left=0;bottom=0;right=0;points=[[0,0.5],[1,0.5]];portConstraint=eastwest;" parent="vgXwqv752yafJhqU4HUZ-41" vertex="1">
          <mxGeometry y="105" width="180" height="30" as="geometry" />
        </mxCell>
        <mxCell id="vgXwqv752yafJhqU4HUZ-49" value="" style="shape=partialRectangle;html=1;whiteSpace=wrap;connectable=0;fillColor=none;top=0;left=0;bottom=0;right=0;overflow=hidden;" parent="vgXwqv752yafJhqU4HUZ-48" vertex="1">
          <mxGeometry width="40" height="30" as="geometry" />
        </mxCell>
        <mxCell id="vgXwqv752yafJhqU4HUZ-50" value="" style="shape=partialRectangle;html=1;whiteSpace=wrap;connectable=0;fillColor=none;top=0;left=0;bottom=0;right=0;align=left;spacingLeft=6;overflow=hidden;" parent="vgXwqv752yafJhqU4HUZ-48" vertex="1">
          <mxGeometry x="40" width="140" height="30" as="geometry" />
        </mxCell>
        <mxCell id="vgXwqv752yafJhqU4HUZ-51" value="&lt;font style=&quot;vertical-align: inherit&quot;&gt;&lt;font style=&quot;vertical-align: inherit&quot;&gt;ordini&lt;/font&gt;&lt;/font&gt;" style="shape=table;html=1;whiteSpace=wrap;startSize=30;container=1;collapsible=0;childLayout=tableLayout;fixedRows=1;rowLines=0;fontStyle=1;align=center;fillColor=#dae8fc;strokeColor=#6c8ebf;" parent="WIyWlLk6GJQsqaUBKTNV-1" vertex="1">
          <mxGeometry x="260" y="310" width="180" height="150" as="geometry" />
        </mxCell>
        <mxCell id="vgXwqv752yafJhqU4HUZ-52" value="" style="shape=partialRectangle;html=1;whiteSpace=wrap;collapsible=0;dropTarget=0;pointerEvents=0;fillColor=none;top=0;left=0;bottom=1;right=0;points=[[0,0.5],[1,0.5]];portConstraint=eastwest;" parent="vgXwqv752yafJhqU4HUZ-51" vertex="1">
          <mxGeometry y="30" width="180" height="30" as="geometry" />
        </mxCell>
        <mxCell id="vgXwqv752yafJhqU4HUZ-53" value="PK" style="shape=partialRectangle;html=1;whiteSpace=wrap;connectable=0;fillColor=none;top=0;left=0;bottom=0;right=0;overflow=hidden;" parent="vgXwqv752yafJhqU4HUZ-52" vertex="1">
          <mxGeometry width="40" height="30" as="geometry" />
        </mxCell>
        <mxCell id="vgXwqv752yafJhqU4HUZ-54" value="id_ordine" style="shape=partialRectangle;html=1;whiteSpace=wrap;connectable=0;fillColor=none;top=0;left=0;bottom=0;right=0;align=left;spacingLeft=6;overflow=hidden;" parent="vgXwqv752yafJhqU4HUZ-52" vertex="1">
          <mxGeometry x="40" width="140" height="30" as="geometry" />
        </mxCell>
        <mxCell id="vgXwqv752yafJhqU4HUZ-58" value="" style="shape=partialRectangle;html=1;whiteSpace=wrap;collapsible=0;dropTarget=0;pointerEvents=0;fillColor=none;top=0;left=0;bottom=0;right=0;points=[[0,0.5],[1,0.5]];portConstraint=eastwest;" parent="vgXwqv752yafJhqU4HUZ-51" vertex="1">
          <mxGeometry y="60" width="180" height="90" as="geometry" />
        </mxCell>
        <mxCell id="vgXwqv752yafJhqU4HUZ-59" value="" style="shape=partialRectangle;html=1;whiteSpace=wrap;connectable=0;fillColor=none;top=0;left=0;bottom=0;right=0;overflow=hidden;" parent="vgXwqv752yafJhqU4HUZ-58" vertex="1">
          <mxGeometry width="40" height="90" as="geometry" />
        </mxCell>
        <mxCell id="vgXwqv752yafJhqU4HUZ-60" value="processato bool&lt;br&gt;data ordine&lt;br&gt;ora ordine&lt;br&gt;FK id_consegna&lt;br&gt;codice_fiscale" style="shape=partialRectangle;html=1;whiteSpace=wrap;connectable=0;fillColor=none;top=0;left=0;bottom=0;right=0;align=left;spacingLeft=6;overflow=hidden;" parent="vgXwqv752yafJhqU4HUZ-58" vertex="1">
          <mxGeometry x="40" width="140" height="90" as="geometry" />
        </mxCell>
        <mxCell id="m17fT7A31BCtRHgmfNSN-51" style="rounded=0;orthogonalLoop=1;jettySize=auto;elbow=vertical;html=1;entryX=1.033;entryY=0.989;entryDx=0;entryDy=0;startArrow=none;startFill=0;endArrow=ERmany;endFill=0;entryPerimeter=0;" edge="1" parent="WIyWlLk6GJQsqaUBKTNV-1" source="vgXwqv752yafJhqU4HUZ-61" target="vgXwqv752yafJhqU4HUZ-58">
          <mxGeometry relative="1" as="geometry" />
        </mxCell>
        <mxCell id="vgXwqv752yafJhqU4HUZ-61" value="&lt;font style=&quot;vertical-align: inherit&quot;&gt;&lt;font style=&quot;vertical-align: inherit&quot;&gt;Consegna&lt;/font&gt;&lt;/font&gt;" style="shape=table;html=1;whiteSpace=wrap;startSize=30;container=1;collapsible=0;childLayout=tableLayout;fixedRows=1;rowLines=0;fontStyle=1;align=center;fillColor=#6a00ff;strokeColor=#3700CC;fontColor=#ffffff;" parent="WIyWlLk6GJQsqaUBKTNV-1" vertex="1">
          <mxGeometry x="540" y="480" width="180" height="170" as="geometry" />
        </mxCell>
        <mxCell id="vgXwqv752yafJhqU4HUZ-62" value="" style="shape=partialRectangle;html=1;whiteSpace=wrap;collapsible=0;dropTarget=0;pointerEvents=0;fillColor=none;top=0;left=0;bottom=1;right=0;points=[[0,0.5],[1,0.5]];portConstraint=eastwest;" parent="vgXwqv752yafJhqU4HUZ-61" vertex="1">
          <mxGeometry y="30" width="180" height="30" as="geometry" />
        </mxCell>
        <mxCell id="vgXwqv752yafJhqU4HUZ-63" value="&lt;font style=&quot;vertical-align: inherit&quot;&gt;&lt;font style=&quot;vertical-align: inherit&quot;&gt;PK&lt;/font&gt;&lt;/font&gt;" style="shape=partialRectangle;html=1;whiteSpace=wrap;connectable=0;fillColor=none;top=0;left=0;bottom=0;right=0;overflow=hidden;" parent="vgXwqv752yafJhqU4HUZ-62" vertex="1">
          <mxGeometry width="40" height="30" as="geometry" />
        </mxCell>
        <mxCell id="vgXwqv752yafJhqU4HUZ-64" value="&lt;font style=&quot;vertical-align: inherit&quot;&gt;&lt;font style=&quot;vertical-align: inherit&quot;&gt;Id_consegna&lt;/font&gt;&lt;/font&gt;" style="shape=partialRectangle;html=1;whiteSpace=wrap;connectable=0;fillColor=none;top=0;left=0;bottom=0;right=0;align=left;spacingLeft=6;overflow=hidden;" parent="vgXwqv752yafJhqU4HUZ-62" vertex="1">
          <mxGeometry x="40" width="140" height="30" as="geometry" />
        </mxCell>
        <mxCell id="vgXwqv752yafJhqU4HUZ-65" value="" style="shape=partialRectangle;html=1;whiteSpace=wrap;collapsible=0;dropTarget=0;pointerEvents=0;fillColor=none;top=0;left=0;bottom=0;right=0;points=[[0,0.5],[1,0.5]];portConstraint=eastwest;" parent="vgXwqv752yafJhqU4HUZ-61" vertex="1">
          <mxGeometry y="60" width="180" height="80" as="geometry" />
        </mxCell>
        <mxCell id="vgXwqv752yafJhqU4HUZ-66" value="" style="shape=partialRectangle;html=1;whiteSpace=wrap;connectable=0;fillColor=none;top=0;left=0;bottom=0;right=0;overflow=hidden;" parent="vgXwqv752yafJhqU4HUZ-65" vertex="1">
          <mxGeometry width="40" height="80" as="geometry" />
        </mxCell>
        <mxCell id="vgXwqv752yafJhqU4HUZ-67" value="&lt;font style=&quot;vertical-align: inherit&quot;&gt;&lt;font style=&quot;vertical-align: inherit&quot;&gt;data&lt;br&gt;ora&lt;br&gt;durata&lt;br&gt;nome_corriere&lt;br&gt;&lt;/font&gt;&lt;/font&gt;" style="shape=partialRectangle;html=1;whiteSpace=wrap;connectable=0;fillColor=none;top=0;left=0;bottom=0;right=0;align=left;spacingLeft=6;overflow=hidden;" parent="vgXwqv752yafJhqU4HUZ-65" vertex="1">
          <mxGeometry x="40" width="140" height="80" as="geometry" />
        </mxCell>
        <mxCell id="vgXwqv752yafJhqU4HUZ-68" value="" style="shape=partialRectangle;html=1;whiteSpace=wrap;collapsible=0;dropTarget=0;pointerEvents=0;fillColor=none;top=0;left=0;bottom=0;right=0;points=[[0,0.5],[1,0.5]];portConstraint=eastwest;" parent="vgXwqv752yafJhqU4HUZ-61" vertex="1">
          <mxGeometry y="140" width="180" height="30" as="geometry" />
        </mxCell>
        <mxCell id="vgXwqv752yafJhqU4HUZ-69" value="" style="shape=partialRectangle;html=1;whiteSpace=wrap;connectable=0;fillColor=none;top=0;left=0;bottom=0;right=0;overflow=hidden;" parent="vgXwqv752yafJhqU4HUZ-68" vertex="1">
          <mxGeometry width="40" height="30" as="geometry" />
        </mxCell>
        <mxCell id="vgXwqv752yafJhqU4HUZ-70" value="" style="shape=partialRectangle;html=1;whiteSpace=wrap;connectable=0;fillColor=none;top=0;left=0;bottom=0;right=0;align=left;spacingLeft=6;overflow=hidden;" parent="vgXwqv752yafJhqU4HUZ-68" vertex="1">
          <mxGeometry x="40" width="140" height="30" as="geometry" />
        </mxCell>
        <mxCell id="m17fT7A31BCtRHgmfNSN-0" value="&lt;font style=&quot;vertical-align: inherit&quot;&gt;&lt;font style=&quot;vertical-align: inherit&quot;&gt;Modelli_Tessuti&lt;/font&gt;&lt;/font&gt;" style="shape=table;html=1;whiteSpace=wrap;startSize=30;container=1;collapsible=0;childLayout=tableLayout;fixedRows=1;rowLines=0;fontStyle=1;align=center;fillColor=#fa6800;strokeColor=#C73500;fontColor=#ffffff;" vertex="1" parent="WIyWlLk6GJQsqaUBKTNV-1">
          <mxGeometry x="520" y="42.5" width="180" height="150" as="geometry" />
        </mxCell>
        <mxCell id="m17fT7A31BCtRHgmfNSN-1" value="" style="shape=partialRectangle;html=1;whiteSpace=wrap;collapsible=0;dropTarget=0;pointerEvents=0;fillColor=none;top=0;left=0;bottom=1;right=0;points=[[0,0.5],[1,0.5]];portConstraint=eastwest;" vertex="1" parent="m17fT7A31BCtRHgmfNSN-0">
          <mxGeometry y="30" width="180" height="30" as="geometry" />
        </mxCell>
        <mxCell id="m17fT7A31BCtRHgmfNSN-2" value="&lt;font style=&quot;vertical-align: inherit&quot;&gt;&lt;font style=&quot;vertical-align: inherit&quot;&gt;PK&lt;/font&gt;&lt;/font&gt;" style="shape=partialRectangle;html=1;whiteSpace=wrap;connectable=0;fillColor=none;top=0;left=0;bottom=0;right=0;overflow=hidden;" vertex="1" parent="m17fT7A31BCtRHgmfNSN-1">
          <mxGeometry width="40" height="30" as="geometry" />
        </mxCell>
        <mxCell id="m17fT7A31BCtRHgmfNSN-3" value="&lt;font style=&quot;vertical-align: inherit&quot;&gt;&lt;font style=&quot;vertical-align: inherit&quot;&gt;id_modelli_tessuti&lt;/font&gt;&lt;/font&gt;" style="shape=partialRectangle;html=1;whiteSpace=wrap;connectable=0;fillColor=none;top=0;left=0;bottom=0;right=0;align=left;spacingLeft=6;overflow=hidden;" vertex="1" parent="m17fT7A31BCtRHgmfNSN-1">
          <mxGeometry x="40" width="140" height="30" as="geometry" />
        </mxCell>
        <mxCell id="m17fT7A31BCtRHgmfNSN-4" value="" style="shape=partialRectangle;html=1;whiteSpace=wrap;collapsible=0;dropTarget=0;pointerEvents=0;fillColor=none;top=0;left=0;bottom=0;right=0;points=[[0,0.5],[1,0.5]];portConstraint=eastwest;" vertex="1" parent="m17fT7A31BCtRHgmfNSN-0">
          <mxGeometry y="60" width="180" height="30" as="geometry" />
        </mxCell>
        <mxCell id="m17fT7A31BCtRHgmfNSN-5" value="&lt;font style=&quot;vertical-align: inherit&quot;&gt;&lt;font style=&quot;vertical-align: inherit&quot;&gt;FK&lt;/font&gt;&lt;/font&gt;" style="shape=partialRectangle;html=1;whiteSpace=wrap;connectable=0;fillColor=none;top=0;left=0;bottom=0;right=0;overflow=hidden;" vertex="1" parent="m17fT7A31BCtRHgmfNSN-4">
          <mxGeometry width="40" height="30" as="geometry" />
        </mxCell>
        <mxCell id="m17fT7A31BCtRHgmfNSN-6" value="&lt;font style=&quot;vertical-align: inherit&quot;&gt;&lt;font style=&quot;vertical-align: inherit&quot;&gt;id_modello&lt;br&gt;id_tessuto&lt;br&gt;&lt;/font&gt;&lt;/font&gt;" style="shape=partialRectangle;html=1;whiteSpace=wrap;connectable=0;fillColor=none;top=0;left=0;bottom=0;right=0;align=left;spacingLeft=6;overflow=hidden;" vertex="1" parent="m17fT7A31BCtRHgmfNSN-4">
          <mxGeometry x="40" width="140" height="30" as="geometry" />
        </mxCell>
        <mxCell id="m17fT7A31BCtRHgmfNSN-7" value="" style="shape=partialRectangle;html=1;whiteSpace=wrap;collapsible=0;dropTarget=0;pointerEvents=0;fillColor=none;top=0;left=0;bottom=0;right=0;points=[[0,0.5],[1,0.5]];portConstraint=eastwest;" vertex="1" parent="m17fT7A31BCtRHgmfNSN-0">
          <mxGeometry y="90" width="180" height="30" as="geometry" />
        </mxCell>
        <mxCell id="m17fT7A31BCtRHgmfNSN-8" value="" style="shape=partialRectangle;html=1;whiteSpace=wrap;connectable=0;fillColor=none;top=0;left=0;bottom=0;right=0;overflow=hidden;" vertex="1" parent="m17fT7A31BCtRHgmfNSN-7">
          <mxGeometry width="40" height="30" as="geometry" />
        </mxCell>
        <mxCell id="m17fT7A31BCtRHgmfNSN-9" value="" style="shape=partialRectangle;html=1;whiteSpace=wrap;connectable=0;fillColor=none;top=0;left=0;bottom=0;right=0;align=left;spacingLeft=6;overflow=hidden;" vertex="1" parent="m17fT7A31BCtRHgmfNSN-7">
          <mxGeometry x="40" width="140" height="30" as="geometry" />
        </mxCell>
        <mxCell id="m17fT7A31BCtRHgmfNSN-11" style="edgeStyle=none;rounded=0;orthogonalLoop=1;jettySize=auto;html=1;entryX=1;entryY=0.5;entryDx=0;entryDy=0;endArrow=ERmany;endFill=0;" edge="1" parent="WIyWlLk6GJQsqaUBKTNV-1" source="vgXwqv752yafJhqU4HUZ-18" target="m17fT7A31BCtRHgmfNSN-7">
          <mxGeometry relative="1" as="geometry" />
        </mxCell>
        <mxCell id="m17fT7A31BCtRHgmfNSN-33" style="edgeStyle=none;rounded=0;orthogonalLoop=1;jettySize=auto;html=1;endArrow=ERmany;endFill=0;" edge="1" parent="WIyWlLk6GJQsqaUBKTNV-1" source="m17fT7A31BCtRHgmfNSN-12" target="m17fT7A31BCtRHgmfNSN-26">
          <mxGeometry relative="1" as="geometry" />
        </mxCell>
        <mxCell id="m17fT7A31BCtRHgmfNSN-12" value="&lt;font style=&quot;vertical-align: inherit&quot;&gt;&lt;font style=&quot;vertical-align: inherit&quot;&gt;colori&lt;/font&gt;&lt;/font&gt;" style="shape=table;html=1;whiteSpace=wrap;startSize=30;container=1;collapsible=0;childLayout=tableLayout;fixedRows=1;rowLines=0;fontStyle=1;align=center;fillColor=#b1ddf0;strokeColor=#10739e;" vertex="1" parent="WIyWlLk6GJQsqaUBKTNV-1">
          <mxGeometry x="1170" y="27.5" width="180" height="150" as="geometry" />
        </mxCell>
        <mxCell id="m17fT7A31BCtRHgmfNSN-13" value="" style="shape=partialRectangle;html=1;whiteSpace=wrap;collapsible=0;dropTarget=0;pointerEvents=0;fillColor=none;top=0;left=0;bottom=1;right=0;points=[[0,0.5],[1,0.5]];portConstraint=eastwest;" vertex="1" parent="m17fT7A31BCtRHgmfNSN-12">
          <mxGeometry y="30" width="180" height="30" as="geometry" />
        </mxCell>
        <mxCell id="m17fT7A31BCtRHgmfNSN-14" value="&lt;font style=&quot;vertical-align: inherit&quot;&gt;&lt;font style=&quot;vertical-align: inherit&quot;&gt;PK&lt;/font&gt;&lt;/font&gt;" style="shape=partialRectangle;html=1;whiteSpace=wrap;connectable=0;fillColor=none;top=0;left=0;bottom=0;right=0;overflow=hidden;" vertex="1" parent="m17fT7A31BCtRHgmfNSN-13">
          <mxGeometry width="40" height="30" as="geometry" />
        </mxCell>
        <mxCell id="m17fT7A31BCtRHgmfNSN-15" value="&lt;font style=&quot;vertical-align: inherit&quot;&gt;&lt;font style=&quot;vertical-align: inherit&quot;&gt;id_colore&lt;/font&gt;&lt;/font&gt;" style="shape=partialRectangle;html=1;whiteSpace=wrap;connectable=0;fillColor=none;top=0;left=0;bottom=0;right=0;align=left;spacingLeft=6;overflow=hidden;" vertex="1" parent="m17fT7A31BCtRHgmfNSN-13">
          <mxGeometry x="40" width="140" height="30" as="geometry" />
        </mxCell>
        <mxCell id="m17fT7A31BCtRHgmfNSN-16" value="" style="shape=partialRectangle;html=1;whiteSpace=wrap;collapsible=0;dropTarget=0;pointerEvents=0;fillColor=none;top=0;left=0;bottom=0;right=0;points=[[0,0.5],[1,0.5]];portConstraint=eastwest;" vertex="1" parent="m17fT7A31BCtRHgmfNSN-12">
          <mxGeometry y="60" width="180" height="30" as="geometry" />
        </mxCell>
        <mxCell id="m17fT7A31BCtRHgmfNSN-17" value="" style="shape=partialRectangle;html=1;whiteSpace=wrap;connectable=0;fillColor=none;top=0;left=0;bottom=0;right=0;overflow=hidden;" vertex="1" parent="m17fT7A31BCtRHgmfNSN-16">
          <mxGeometry width="40" height="30" as="geometry" />
        </mxCell>
        <mxCell id="m17fT7A31BCtRHgmfNSN-18" value="&lt;font style=&quot;vertical-align: inherit&quot;&gt;&lt;font style=&quot;vertical-align: inherit&quot;&gt;nome&lt;/font&gt;&lt;/font&gt;" style="shape=partialRectangle;html=1;whiteSpace=wrap;connectable=0;fillColor=none;top=0;left=0;bottom=0;right=0;align=left;spacingLeft=6;overflow=hidden;" vertex="1" parent="m17fT7A31BCtRHgmfNSN-16">
          <mxGeometry x="40" width="140" height="30" as="geometry" />
        </mxCell>
        <mxCell id="m17fT7A31BCtRHgmfNSN-19" value="" style="shape=partialRectangle;html=1;whiteSpace=wrap;collapsible=0;dropTarget=0;pointerEvents=0;fillColor=none;top=0;left=0;bottom=0;right=0;points=[[0,0.5],[1,0.5]];portConstraint=eastwest;" vertex="1" parent="m17fT7A31BCtRHgmfNSN-12">
          <mxGeometry y="90" width="180" height="30" as="geometry" />
        </mxCell>
        <mxCell id="m17fT7A31BCtRHgmfNSN-20" value="" style="shape=partialRectangle;html=1;whiteSpace=wrap;connectable=0;fillColor=none;top=0;left=0;bottom=0;right=0;overflow=hidden;" vertex="1" parent="m17fT7A31BCtRHgmfNSN-19">
          <mxGeometry width="40" height="30" as="geometry" />
        </mxCell>
        <mxCell id="m17fT7A31BCtRHgmfNSN-21" value="" style="shape=partialRectangle;html=1;whiteSpace=wrap;connectable=0;fillColor=none;top=0;left=0;bottom=0;right=0;align=left;spacingLeft=6;overflow=hidden;" vertex="1" parent="m17fT7A31BCtRHgmfNSN-19">
          <mxGeometry x="40" width="140" height="30" as="geometry" />
        </mxCell>
        <mxCell id="m17fT7A31BCtRHgmfNSN-22" value="&lt;font style=&quot;vertical-align: inherit&quot;&gt;&lt;font style=&quot;vertical-align: inherit&quot;&gt;&lt;font style=&quot;vertical-align: inherit&quot;&gt;&lt;font style=&quot;vertical-align: inherit&quot;&gt;tessuti_colori&lt;/font&gt;&lt;/font&gt;&lt;/font&gt;&lt;/font&gt;" style="shape=table;html=1;whiteSpace=wrap;startSize=30;container=1;collapsible=0;childLayout=tableLayout;fixedRows=1;rowLines=0;fontStyle=1;align=center;gradientColor=#ffd966;fillColor=#fff2cc;strokeColor=#d6b656;" vertex="1" parent="WIyWlLk6GJQsqaUBKTNV-1">
          <mxGeometry x="940" y="32.5" width="180" height="150" as="geometry" />
        </mxCell>
        <mxCell id="m17fT7A31BCtRHgmfNSN-23" value="" style="shape=partialRectangle;html=1;whiteSpace=wrap;collapsible=0;dropTarget=0;pointerEvents=0;fillColor=none;top=0;left=0;bottom=1;right=0;points=[[0,0.5],[1,0.5]];portConstraint=eastwest;" vertex="1" parent="m17fT7A31BCtRHgmfNSN-22">
          <mxGeometry y="30" width="180" height="30" as="geometry" />
        </mxCell>
        <mxCell id="m17fT7A31BCtRHgmfNSN-24" value="&lt;font style=&quot;vertical-align: inherit&quot;&gt;&lt;font style=&quot;vertical-align: inherit&quot;&gt;PK&lt;/font&gt;&lt;/font&gt;" style="shape=partialRectangle;html=1;whiteSpace=wrap;connectable=0;fillColor=none;top=0;left=0;bottom=0;right=0;overflow=hidden;" vertex="1" parent="m17fT7A31BCtRHgmfNSN-23">
          <mxGeometry width="40" height="30" as="geometry" />
        </mxCell>
        <mxCell id="m17fT7A31BCtRHgmfNSN-25" value="&lt;font style=&quot;vertical-align: inherit&quot;&gt;&lt;font style=&quot;vertical-align: inherit&quot;&gt;id_tessuto_colore&lt;/font&gt;&lt;/font&gt;" style="shape=partialRectangle;html=1;whiteSpace=wrap;connectable=0;fillColor=none;top=0;left=0;bottom=0;right=0;align=left;spacingLeft=6;overflow=hidden;" vertex="1" parent="m17fT7A31BCtRHgmfNSN-23">
          <mxGeometry x="40" width="140" height="30" as="geometry" />
        </mxCell>
        <mxCell id="m17fT7A31BCtRHgmfNSN-26" value="" style="shape=partialRectangle;html=1;whiteSpace=wrap;collapsible=0;dropTarget=0;pointerEvents=0;fillColor=none;top=0;left=0;bottom=0;right=0;points=[[0,0.5],[1,0.5]];portConstraint=eastwest;" vertex="1" parent="m17fT7A31BCtRHgmfNSN-22">
          <mxGeometry y="60" width="180" height="30" as="geometry" />
        </mxCell>
        <mxCell id="m17fT7A31BCtRHgmfNSN-27" value="" style="shape=partialRectangle;html=1;whiteSpace=wrap;connectable=0;fillColor=none;top=0;left=0;bottom=0;right=0;overflow=hidden;" vertex="1" parent="m17fT7A31BCtRHgmfNSN-26">
          <mxGeometry width="40" height="30" as="geometry" />
        </mxCell>
        <mxCell id="m17fT7A31BCtRHgmfNSN-28" value="&lt;font style=&quot;vertical-align: inherit&quot;&gt;&lt;font style=&quot;vertical-align: inherit&quot;&gt;id_colore&lt;br&gt;id_tessuto&lt;br&gt;&lt;/font&gt;&lt;/font&gt;" style="shape=partialRectangle;html=1;whiteSpace=wrap;connectable=0;fillColor=none;top=0;left=0;bottom=0;right=0;align=left;spacingLeft=6;overflow=hidden;" vertex="1" parent="m17fT7A31BCtRHgmfNSN-26">
          <mxGeometry x="40" width="140" height="30" as="geometry" />
        </mxCell>
        <mxCell id="m17fT7A31BCtRHgmfNSN-29" value="" style="shape=partialRectangle;html=1;whiteSpace=wrap;collapsible=0;dropTarget=0;pointerEvents=0;fillColor=none;top=0;left=0;bottom=0;right=0;points=[[0,0.5],[1,0.5]];portConstraint=eastwest;" vertex="1" parent="m17fT7A31BCtRHgmfNSN-22">
          <mxGeometry y="90" width="180" height="30" as="geometry" />
        </mxCell>
        <mxCell id="m17fT7A31BCtRHgmfNSN-30" value="" style="shape=partialRectangle;html=1;whiteSpace=wrap;connectable=0;fillColor=none;top=0;left=0;bottom=0;right=0;overflow=hidden;" vertex="1" parent="m17fT7A31BCtRHgmfNSN-29">
          <mxGeometry width="40" height="30" as="geometry" />
        </mxCell>
        <mxCell id="m17fT7A31BCtRHgmfNSN-31" value="" style="shape=partialRectangle;html=1;whiteSpace=wrap;connectable=0;fillColor=none;top=0;left=0;bottom=0;right=0;align=left;spacingLeft=6;overflow=hidden;" vertex="1" parent="m17fT7A31BCtRHgmfNSN-29">
          <mxGeometry x="40" width="140" height="30" as="geometry" />
        </mxCell>
        <mxCell id="m17fT7A31BCtRHgmfNSN-34" value="divani_ordine" style="shape=table;html=1;whiteSpace=wrap;startSize=30;container=1;collapsible=0;childLayout=tableLayout;fixedRows=1;rowLines=0;fontStyle=1;align=center;gradientColor=#ffa500;fillColor=#ffcd28;strokeColor=#d79b00;" vertex="1" parent="WIyWlLk6GJQsqaUBKTNV-1">
          <mxGeometry x="30" y="310" width="180" height="150" as="geometry" />
        </mxCell>
        <mxCell id="m17fT7A31BCtRHgmfNSN-35" value="" style="shape=partialRectangle;html=1;whiteSpace=wrap;collapsible=0;dropTarget=0;pointerEvents=0;fillColor=none;top=0;left=0;bottom=1;right=0;points=[[0,0.5],[1,0.5]];portConstraint=eastwest;" vertex="1" parent="m17fT7A31BCtRHgmfNSN-34">
          <mxGeometry y="30" width="180" height="30" as="geometry" />
        </mxCell>
        <mxCell id="m17fT7A31BCtRHgmfNSN-36" value="PK" style="shape=partialRectangle;html=1;whiteSpace=wrap;connectable=0;fillColor=none;top=0;left=0;bottom=0;right=0;overflow=hidden;" vertex="1" parent="m17fT7A31BCtRHgmfNSN-35">
          <mxGeometry width="40" height="30" as="geometry" />
        </mxCell>
        <mxCell id="m17fT7A31BCtRHgmfNSN-37" value="id_divano_ordine" style="shape=partialRectangle;html=1;whiteSpace=wrap;connectable=0;fillColor=none;top=0;left=0;bottom=0;right=0;align=left;spacingLeft=6;overflow=hidden;" vertex="1" parent="m17fT7A31BCtRHgmfNSN-35">
          <mxGeometry x="40" width="140" height="30" as="geometry" />
        </mxCell>
        <mxCell id="m17fT7A31BCtRHgmfNSN-38" value="" style="shape=partialRectangle;html=1;whiteSpace=wrap;collapsible=0;dropTarget=0;pointerEvents=0;fillColor=none;top=0;left=0;bottom=0;right=0;points=[[0,0.5],[1,0.5]];portConstraint=eastwest;" vertex="1" parent="m17fT7A31BCtRHgmfNSN-34">
          <mxGeometry y="60" width="180" height="60" as="geometry" />
        </mxCell>
        <mxCell id="m17fT7A31BCtRHgmfNSN-39" value="" style="shape=partialRectangle;html=1;whiteSpace=wrap;connectable=0;fillColor=none;top=0;left=0;bottom=0;right=0;overflow=hidden;" vertex="1" parent="m17fT7A31BCtRHgmfNSN-38">
          <mxGeometry width="40" height="60" as="geometry" />
        </mxCell>
        <mxCell id="m17fT7A31BCtRHgmfNSN-40" value="id_ordine&lt;br&gt;id_divano&lt;br&gt;data_storica&lt;br&gt;n_pezzi" style="shape=partialRectangle;html=1;whiteSpace=wrap;connectable=0;fillColor=none;top=0;left=0;bottom=0;right=0;align=left;spacingLeft=6;overflow=hidden;" vertex="1" parent="m17fT7A31BCtRHgmfNSN-38">
          <mxGeometry x="40" width="140" height="60" as="geometry" />
        </mxCell>
        <mxCell id="m17fT7A31BCtRHgmfNSN-41" value="" style="shape=partialRectangle;html=1;whiteSpace=wrap;collapsible=0;dropTarget=0;pointerEvents=0;fillColor=none;top=0;left=0;bottom=0;right=0;points=[[0,0.5],[1,0.5]];portConstraint=eastwest;" vertex="1" parent="m17fT7A31BCtRHgmfNSN-34">
          <mxGeometry y="120" width="180" height="30" as="geometry" />
        </mxCell>
        <mxCell id="m17fT7A31BCtRHgmfNSN-42" value="" style="shape=partialRectangle;html=1;whiteSpace=wrap;connectable=0;fillColor=none;top=0;left=0;bottom=0;right=0;overflow=hidden;" vertex="1" parent="m17fT7A31BCtRHgmfNSN-41">
          <mxGeometry width="40" height="30" as="geometry" />
        </mxCell>
        <mxCell id="m17fT7A31BCtRHgmfNSN-43" value="" style="shape=partialRectangle;html=1;whiteSpace=wrap;connectable=0;fillColor=none;top=0;left=0;bottom=0;right=0;align=left;spacingLeft=6;overflow=hidden;" vertex="1" parent="m17fT7A31BCtRHgmfNSN-41">
          <mxGeometry x="40" width="140" height="30" as="geometry" />
        </mxCell>
        <mxCell id="m17fT7A31BCtRHgmfNSN-46" style="edgeStyle=orthogonalEdgeStyle;rounded=0;orthogonalLoop=1;jettySize=auto;html=1;entryX=0.5;entryY=1;entryDx=0;entryDy=0;endArrow=oval;endFill=0;" edge="1" parent="WIyWlLk6GJQsqaUBKTNV-1" source="vgXwqv752yafJhqU4HUZ-28" target="vgXwqv752yafJhqU4HUZ-11">
          <mxGeometry relative="1" as="geometry" />
        </mxCell>
        <mxCell id="m17fT7A31BCtRHgmfNSN-49" style="edgeStyle=elbowEdgeStyle;rounded=0;orthogonalLoop=1;jettySize=auto;elbow=vertical;html=1;entryX=1.006;entryY=0.36;entryDx=0;entryDy=0;entryPerimeter=0;endArrow=ERmany;endFill=0;startArrow=none;startFill=0;" edge="1" parent="WIyWlLk6GJQsqaUBKTNV-1" source="vgXwqv752yafJhqU4HUZ-58" target="m17fT7A31BCtRHgmfNSN-38">
          <mxGeometry relative="1" as="geometry" />
        </mxCell>
      </root>
    </mxGraphModel>
  </diagram>
</mxfile>
